<?xml version="1.0" encoding="UTF-8"?><svg id="icon" xmlns="http://www.w3.org/2000/svg" width="24" height="24" viewBox="0 0 24 24"><circle cx="4.01" cy="19.99" r="1" fill="#1f2533"/><path d="m22.35,16.51l-2.37-.79-3.73-3.73.43-.43c.45-.45,1.02-.71,1.59-.72,1.29-.03,2.5-.54,3.41-1.45l.82-.82,1.32-2.65c.29-.58.18-1.28-.28-1.74l-3.73-3.73c-.46-.46-1.16-.57-1.74-.28l-2.65,1.32-.81.81c-.92.91-1.43,2.13-1.46,3.42,0,.45-.18.9-.48,1.29L6.82,1.18C6.07.42,5.07,0,4,0S1.97.41,1.23,1.14C.46,1.89.04,2.89.03,3.96c0,1.07.4,2.07,1.16,2.83l5.87,5.91-3.33,3.32c-1.21.08-2.31.7-3.01,1.7-.95,1.35-.95,3.23,0,4.57.69.98,1.76,1.6,2.94,1.7.12.01.23.02.35.02,1.06,0,2.07-.42,2.83-1.17.66-.66,1.07-1.55,1.15-2.57l4.02-4.02,3.73,3.73.79,2.37,5.3,1.77,2.29-2.29-1.77-5.3Zm-4.24,4.24l-.62-1.87-6.19-6.19,1.41-1.41,6.19,6.19,1.87.62,1.06,3.18-.54.54-3.18-1.06Zm-8.93-8.77L2.6,5.37c-.37-.38-.58-.88-.57-1.41s.21-1.03.59-1.4c.37-.36.86-.56,1.38-.56s1.03.21,1.4.58h0s6.6,6.57,6.6,6.57l-1.41,1.41-1.41,1.41Zm5.99-6.22c.02-.78.32-1.5.87-2.05l.59-.58,2.04-1.02.55.55-2.12,2.12,2.12,2.12,2.12-2.12.55.55-1.02,2.04-.59.59c-.54.54-1.26.85-2.04.86-1.09.02-2.14.49-2.96,1.31l-.43.43-.71-.71c.19-.19.29-.44.29-.71s-.11-.52-.29-.71l-.02-.02c.66-.77,1.04-1.7,1.06-2.66Zm-8.59,13.07c-.34.34-.54.8-.59,1.33-.03.33-.15.82-.57,1.24-.42.42-.99.63-1.59.58-.6-.05-1.12-.36-1.48-.86-.46-.66-.46-1.61,0-2.27.35-.51.89-.81,1.5-.85.5-.03.94-.22,1.27-.55l3.34-3.34c.19.18.44.29.7.29h0c.27,0,.52-.11.71-.29l.71.71-4.02,4.02Z" fill="#1f2533"/></svg>