<?xml version="1.0" encoding="UTF-8"?><svg id="icon" xmlns="http://www.w3.org/2000/svg" width="24" height="24" viewBox="0 0 24 24"><rect x="22" y="12.5" width="2" height="10" fill="#1f2533"/><rect x="10" y="12.5" width="2" height="10" fill="#1f2533"/><rect x="6" y="12.5" width="3" height="10" fill="#1f2533"/><rect x="3" y="12.5" width="2" height="10" fill="#1f2533"/><rect y="12.5" width="2" height="10" fill="#1f2533"/><rect x="17" y="12.5" width="4" height="10" fill="#1f2533"/><rect x="13" y="12.5" width="3" height="10" fill="#1f2533"/><rect x="3.71" y="7.79" width="2" height="2" transform="translate(-4.84 5.9) rotate(-45)" fill="#1f2533"/><rect x="6.17" y="4.5" width="3.66" height="2" transform="translate(-1.55 7.27) rotate(-45)" fill="#1f2533"/><path d="m12.71.79c-.39-.39-1.02-.39-1.41,0l-1.41,1.41,1.41,1.41.71-.71.71.71,1.41-1.41-1.41-1.41Z" fill="#1f2533"/><rect x="15" y="3.67" width="2" height="3.66" transform="translate(.8 12.92) rotate(-45)" fill="#1f2533"/><rect x="18.29" y="7.79" width="2" height="2" transform="translate(-.57 16.22) rotate(-45)" fill="#1f2533"/></svg>